<?xml version="1.0" encoding="UTF-8" standalone="no"?>
<!-- Created with Inkscape (http://www.inkscape.org/) -->

<svg
   width="38.000072"
   height="105.317"
   viewBox="0 0 10.054186 27.865124"
   version="1.1"
   id="svg1112"
   inkscape:version="1.2.2 (732a01da63, 2022-12-09)"
   sodipodi:docname="bleft.svg"
   xmlns:inkscape="http://www.inkscape.org/namespaces/inkscape"
   xmlns:sodipodi="http://sodipodi.sourceforge.net/DTD/sodipodi-0.dtd"
   xmlns="http://www.w3.org/2000/svg"
   xmlns:svg="http://www.w3.org/2000/svg">
  <sodipodi:namedview
     id="namedview1114"
     pagecolor="#ffffff"
     bordercolor="#000000"
     borderopacity="0"
     inkscape:showpageshadow="2"
     inkscape:pageopacity="0"
     inkscape:pagecheckerboard="true"
     inkscape:deskcolor="#d1d1d1"
     inkscape:document-units="mm"
     showgrid="false"
     inkscape:zoom="1.2809124"
     inkscape:cx="73.385191"
     inkscape:cy="27.324273"
     inkscape:window-width="1366"
     inkscape:window-height="705"
     inkscape:window-x="-8"
     inkscape:window-y="-8"
     inkscape:window-maximized="1"
     inkscape:current-layer="layer1" />
  <defs
     id="defs1109" />
  <g
     inkscape:label="Шар 1"
     inkscape:groupmode="layer"
     id="layer1"
     transform="translate(-122.51229,-47.021314)">
    <g
       id="g4608"
       transform="matrix(-0.26872878,0,0,0.26872878,161.97941,44.573815)">
      <path
         style="fill:#ff0000;stroke-width:0.206747"
         d="m 111.70288,110.01973 c -1.015,-1.67097 -1.93738,-2.98162 -2.04868,-2.91151 -0.10716,0.0754 -0.20208,0.0133 -0.20208,-0.12564 0,-0.15076 0.0919,-0.2563 0.20208,-0.25881 0.2373,-0.002 2.05756,-3.04193 2.05756,-3.43693 0,-0.15076 0.10717,-0.26886 0.24189,-0.26886 0.13778,0 0.24801,-0.25128 0.25413,-0.59553 0.008,-0.32666 0.0459,-0.44727 0.0919,-0.26384 0.0459,0.1759 0.1531,0.33169 0.24036,0.33169 0.29394,0 12.24062,-19.822016 12.24323,-20.312755 0.002,-0.384449 0.0306,-0.407064 0.15309,-0.100509 0.10716,0.296503 0.30006,0.125637 0.88487,-0.839256 0.40723,-0.668389 0.74097,-1.344316 0.74097,-1.500106 0,-0.150764 0.10716,-0.286452 0.24188,-0.286452 0.13778,0 0.24189,-0.175892 0.24189,-0.397014 0,-0.226146 0.0765,-0.397013 0.17452,-0.397013 0.24495,0 3.37247,-5.093325 3.3743,-5.496118 7.7e-4,-0.175892 0.0919,-0.331682 0.20515,-0.331682 0.10716,0 1.83588,-2.682099 3.83158,-5.95997 l 3.62844,-5.95997 -4.83909,-7.946041 c -2.6615,-4.370159 -4.8896,-7.945789 -4.9513,-7.945789 -0.0612,0 -3.6713,-5.840364 -8.02141,-12.978809 -4.35011,-7.138195 -7.96905,-12.978559 -8.04208,-12.978559 -0.0765,0 -0.69197,-0.924688 -1.37476,-2.052909 l -1.24158,-2.052909 1.5202,-2.516259 c 0.83589,-1.38452 1.52327,-2.7006936 1.52786,-2.9260865 0.0121,-0.7186439 0.76393,-0.4372169 1.35946,0.5100865 0.33833,0.537727 0.65983,0.83423 0.80526,0.743771 0.16381,-0.100509 0.25873,0.02513 0.29394,0.427166 0.0306,0.319118 0.16534,0.582956 0.30618,0.585469 0.24495,0.004 0.79302,0.718643 0.79302,1.035249 0,0.253787 0.63533,1.211141 0.8022,1.211141 0.0919,0 0.10717,0.175892 0.0612,0.417115 -0.0765,0.301529 -0.0121,0.3945 0.20667,0.331682 0.2174,-0.05025 0.29088,0.05025 0.25414,0.391987 -0.0306,0.336708 0.0306,0.454806 0.24188,0.397013 0.20974,-0.05025 0.2771,0.05025 0.23883,0.417115 -0.0306,0.361835 0.0153,0.454806 0.20208,0.33922 0.13778,-0.100509 0.25413,-0.0201 0.25566,0.150765 6.1e-4,0.175892 0.22352,0.530188 0.49449,0.783975 0.27097,0.253787 0.45009,0.57793 0.39651,0.718644 -0.0459,0.150764 0.0459,0.500035 0.23117,0.796539 0.38732,0.635723 0.48989,0.670902 0.48989,0.175892 0,-0.20102 1.09002,1.424724 2.42069,3.615331 1.74571,2.871812 2.42069,4.155823 2.42069,4.605101 0,0.341732 0.0765,0.623159 0.17912,0.623159 0.22658,0 1.59598,2.26398 1.59598,2.636117 0,0.150764 0.10717,0.276401 0.24189,0.276401 0.13778,0 0.24188,0.175892 0.24188,0.397013 0,0.226147 0.10717,0.397013 0.24189,0.397013 0.13778,0 0.24189,0.175892 0.24189,0.397014 0,0.226146 0.0765,0.397013 0.17299,0.397013 0.22351,0 0.6338,0.673414 0.6338,1.040274 0,0.150765 0.0919,0.28394 0.21739,0.28394 0.12247,0 0.34905,0.251274 0.5098,0.530188 0.16074,0.291478 0.39038,0.530189 0.50979,0.530189 0.12248,0 0.21739,0.150764 0.21739,0.334194 0,0.175892 0.18218,0.655826 0.40417,1.047813 0.22198,0.391988 0.40416,0.783975 0.40416,0.871921 0,0.276402 1.59185,2.780097 1.76745,2.780097 0.0919,0 0.1684,0.10051 0.1684,0.251274 0,0.334195 1.55174,2.931112 1.75152,2.931112 0.0919,0 0.31844,0.424653 0.51439,0.942278 0.21586,0.572905 0.44244,0.88951 0.57716,0.804077 0.13778,-0.07538 0.22198,0.05025 0.22198,0.321631 0,0.253787 0.15463,0.680953 0.34293,0.944791 0.27863,0.391987 0.36895,0.417115 0.48224,0.125637 0.10716,-0.293991 0.13778,-0.293991 0.13778,-0.0058 0.003,0.422141 1.35487,2.69391 1.60349,2.69391 0.0918,0 0.17452,0.175892 0.17452,0.397013 0,0.226147 0.10717,0.397013 0.22352,0.397013 0.12247,0 0.26944,0.397013 0.33068,0.927201 0.0612,0.555316 0.20055,0.927202 0.34139,0.927202 0.12248,0 0.23423,0.125637 0.23423,0.263838 0,0.150764 0.21127,0.263837 0.46846,0.263837 0.35824,0 0.71954,0.402039 1.53307,1.706152 0.58634,0.937252 1.06552,1.892093 1.06552,2.11824 0,0.226147 0.10716,0.414602 0.23423,0.414602 0.30312,0 1.7278,2.367002 1.61083,2.676572 -0.0459,0.125637 0.0306,0.226147 0.16228,0.226147 0.13778,0 0.25107,0.125637 0.25107,0.276401 0,0.150765 0.15309,0.532701 0.32303,0.844281 0.17758,0.31158 0.32302,0.648287 0.32302,0.746284 0,0.10051 -1.48805,2.621543 -3.30817,5.609443 -1.81949,2.9879 -3.30831,5.567731 -3.30831,5.732818 0,0.175892 -0.12248,0.301529 -0.28629,0.301529 -0.43478,0 -3.13945,4.568917 -3.01637,5.095588 0.0765,0.319118 0.0306,0.397013 -0.19596,0.306554 -0.21892,-0.10051 -1.72167,2.221263 -5.78106,8.892339 -3.01729,4.958392 -5.57714,9.015212 -5.68859,9.015212 -0.10716,0 -0.20208,0.150764 -0.20208,0.336707 0,0.341733 -3.54423,6.286386 -3.74846,6.286386 -0.0612,0 -1.4804,2.23383 -3.15232,4.96643 -1.67176,2.73135 -3.1491,5.11067 -3.28275,5.28706 -0.20361,0.26886 -0.54501,-0.17589 -2.0894,-2.71828 z"
         id="path1098" />
      <path
         style="fill:#000000;fill-opacity:1;stroke-width:0.565714"
         d="m 113.07787,109.50421 -1.7266,-2.50952 1.24987,-2.15763 c 0.68743,-1.18669 1.42982,-2.28612 1.64975,-2.44317 0.21994,-0.15705 2.77898,-4.230183 5.68677,-9.05142 2.90779,-4.821237 6.51112,-10.67517 8.0074,-13.008742 5.53095,-8.625959 11.69648,-18.902757 11.69648,-19.495868 0,-0.564801 -17.97452,-29.99978 -25.05844,-41.035559 l -3.08664,-4.808571 1.44465,-2.545715 c 0.79455,-1.400142 1.5145,-2.6396619 1.59988,-2.7544879 0.32826,-0.441455 1.9617,1.6577439 3.97162,5.1040659 1.15167,1.974732 2.78388,4.481422 3.62713,5.570423 0.84325,1.088999 2.6044,4.016571 3.91366,6.505714 1.30927,2.489142 2.99665,5.340973 3.74974,6.337401 0.75309,0.996429 1.55645,2.269286 1.78525,2.828572 0.6447,1.575916 5.24878,9.24951 7.02522,11.708905 0.8765,1.213469 1.59364,2.541013 1.59364,2.950096 0,0.409083 0.47596,0.998514 1.05769,1.309846 0.58173,0.311333 1.49007,1.402218 2.01854,2.42419 0.52847,1.021971 1.55073,2.841625 2.27169,4.043674 l 1.31083,2.185541 -3.75366,6.16827 c -2.06451,3.392554 -4.51738,7.436649 -5.4508,8.98688 -1.85661,3.083438 -10.87342,17.614741 -17.98471,28.983765 -2.4814,3.96707 -4.59279,7.21286 -4.692,7.21286 -0.0992,0 -0.95734,-1.12929 -1.90696,-2.50952 z"
         id="path1700" />
    </g>
  </g>
</svg>
