<?xml version="1.0" encoding="UTF-8" standalone="no"?>
<svg
   width="19.822958"
   height="19.483377"
   viewBox="0 0 19.822958 19.483377"
   fill="none"
   version="1.1"
   id="svg428"
   sodipodi:docname="find.svg"
   inkscape:version="1.2.2 (732a01da63, 2022-12-09)"
   xmlns:inkscape="http://www.inkscape.org/namespaces/inkscape"
   xmlns:sodipodi="https://sodipodi.sourceforge.net/DTD/sodipodi-0.dtd"
   xmlns="http://www.w3.org/2000/svg"
   xmlns:svg="http://www.w3.org/2000/svg">
  <defs
     id="defs432" />
  <sodipodi:namedview
     id="namedview430"
     pagecolor="#ffffff"
     bordercolor="#000000"
     borderopacity="0.25"
     inkscape:showpageshadow="2"
     inkscape:pageopacity="0.0"
     inkscape:pagecheckerboard="0"
     inkscape:deskcolor="#d1d1d1"
     showgrid="false"
     inkscape:zoom="13.125"
     inkscape:cx="19.657143"
     inkscape:cy="19.580952"
     inkscape:window-width="1366"
     inkscape:window-height="705"
     inkscape:window-x="-8"
     inkscape:window-y="-8"
     inkscape:window-maximized="1"
     inkscape:current-layer="svg428" />
  <g
     id="g436"
     transform="matrix(0.95334278,0,0,0.93705648,-9.4180733,-9.2684256)">
    <path
       d="m 24.873,24.884 5.092,5.092"
       stroke="#000000"
       stroke-width="2"
       stroke-miterlimit="20"
       id="path424" />
    <path
       d="m 27.273,19.088 c 0,2.174 -0.8636,4.2589 -2.4008,5.7962 -1.5373,1.5372 -3.6222,2.4008 -5.7962,2.4008 -2.174,0 -4.2589,-0.8636 -5.7961,-2.4008 -1.5373,-1.5373 -2.4009,-3.6222 -2.4009,-5.7962 0,-2.174 0.8636,-4.2589 2.4009,-5.7962 1.5372,-1.5372 3.6221,-2.4008 5.7961,-2.4008 2.174,0 4.2589,0.8636 5.7962,2.4008 1.5372,1.5373 2.4008,3.6222 2.4008,5.7962 z"
       stroke="#000000"
       stroke-width="2"
       stroke-miterlimit="20"
       id="path426" />
  </g>
</svg>
